<svg id="Camada_1" data-name="Camada 1" xmlns="http://www.w3.org/2000/svg" viewBox="0 0 70.67 18.43"><defs><style>.cls-1{fill:#eeeef2;}.cls-2{fill:#d53f8c;}</style></defs><title>logo</title><path class="cls-1" d="M.62,11.54a6.5,6.5,0,0,1,1-3.81A3.33,3.33,0,0,1,4.51,6.28a2.75,2.75,0,0,1,1.35.33,3.15,3.15,0,0,1,1,.92V2.06h2.7V16.45H7.32l-.23-1.23A3.31,3.31,0,0,1,6,16.28a3,3,0,0,1-1.48.37A3.37,3.37,0,0,1,1.64,15.3a5.76,5.76,0,0,1-1-3.56Zm2.68.2a4,4,0,0,0,.45,2.06,1.53,1.53,0,0,0,1.44.75,2.18,2.18,0,0,0,1-.23,1.88,1.88,0,0,0,.71-.69V9.37a2.13,2.13,0,0,0-.7-.73,2,2,0,0,0-1-.26,1.52,1.52,0,0,0-1.44.87,5,5,0,0,0-.46,2.29Z" transform="translate(-0.62 -2.06)"/><path class="cls-1" d="M17.59,16.45a5.59,5.59,0,0,1-.26-.72,5,5,0,0,1-.15-.77,3.75,3.75,0,0,1-1.1,1.21,2.72,2.72,0,0,1-1.62.48A3.37,3.37,0,0,1,12,15.84a2.91,2.91,0,0,1-.85-2.2,2.65,2.65,0,0,1,1.13-2.28,5.66,5.66,0,0,1,3.3-.8h1.51v-.8a1.54,1.54,0,0,0-.37-1.11,1.48,1.48,0,0,0-1.13-.4,1.47,1.47,0,0,0-1,.32,1.09,1.09,0,0,0-.35.87h-2.6l0-.06A2.54,2.54,0,0,1,12.76,7.2a4.78,4.78,0,0,1,3.05-.92,4.43,4.43,0,0,1,2.91.91,3.14,3.14,0,0,1,1.11,2.59V13.9a6.91,6.91,0,0,0,.11,1.32,6.57,6.57,0,0,0,.33,1.23Zm-2.47-1.8a2.26,2.26,0,0,0,1.26-.35,1.8,1.8,0,0,0,.75-.81V12.08H15.62a1.79,1.79,0,0,0-1.29.42,1.38,1.38,0,0,0-.44,1.05,1.06,1.06,0,0,0,.32.8A1.31,1.31,0,0,0,15.12,14.65Z" transform="translate(-0.62 -2.06)"/><path class="cls-1" d="M27.25,13.68a.92.92,0,0,0-.43-.76,4.45,4.45,0,0,0-1.59-.56,6.17,6.17,0,0,1-2.66-1.06,2.3,2.3,0,0,1-.91-1.93,2.73,2.73,0,0,1,1.09-2.18,4.33,4.33,0,0,1,2.89-.91,4.7,4.7,0,0,1,3,.91,2.64,2.64,0,0,1,1.1,2.25l0,.05h-2.6a1.28,1.28,0,0,0-.39-1,1.51,1.51,0,0,0-1.12-.38,1.54,1.54,0,0,0-1,.32,1,1,0,0,0-.38.79.92.92,0,0,0,.39.76,4.55,4.55,0,0,0,1.59.52A6.48,6.48,0,0,1,29,11.61a2.39,2.39,0,0,1,.9,2,2.66,2.66,0,0,1-1.15,2.21,5,5,0,0,1-3.05.86,4.64,4.64,0,0,1-3.15-1,2.84,2.84,0,0,1-1.1-2.31l0-.05h2.46a1.39,1.39,0,0,0,.53,1.16,2.15,2.15,0,0,0,1.3.36,1.89,1.89,0,0,0,1.14-.3A1,1,0,0,0,27.25,13.68Z" transform="translate(-0.62 -2.06)"/><path class="cls-1" d="M34.22,7.73a3.44,3.44,0,0,1,1.16-1.06,3,3,0,0,1,1.51-.39,3.06,3.06,0,0,1,2.45,1,4.86,4.86,0,0,1,.89,3.21v5.92H37.54V10.51a2.76,2.76,0,0,0-.38-1.65A1.33,1.33,0,0,0,36,8.38a2.52,2.52,0,0,0-1.07.2,1.85,1.85,0,0,0-.75.56v7.31H31.53V2.06h2.69Z" transform="translate(-0.62 -2.06)"/><path class="cls-1" d="M41.86,11.54a6.5,6.5,0,0,1,1-3.81,3.33,3.33,0,0,1,2.88-1.45,2.82,2.82,0,0,1,1.47.38,3.21,3.21,0,0,1,1.09,1.08l.21-1.27h2.32v9.94a3.71,3.71,0,0,1-1.27,3A5.39,5.39,0,0,1,46,20.48a7.23,7.23,0,0,1-1.61-.2,7.48,7.48,0,0,1-1.57-.57l.45-2a7.2,7.2,0,0,0,1.28.45A6.47,6.47,0,0,0,46,18.3a2.48,2.48,0,0,0,1.63-.46,1.86,1.86,0,0,0,.52-1.44v-.91a3.07,3.07,0,0,1-1.05.86,3,3,0,0,1-1.37.3,3.37,3.37,0,0,1-2.86-1.35,5.76,5.76,0,0,1-1-3.56Zm2.7.2A4.12,4.12,0,0,0,45,13.8a1.53,1.53,0,0,0,1.43.75,2.14,2.14,0,0,0,1-.23,1.82,1.82,0,0,0,.69-.66V9.34a1.89,1.89,0,0,0-.69-.71,2,2,0,0,0-1-.25A1.51,1.51,0,0,0,45,9.25a5,5,0,0,0-.45,2.29Z" transform="translate(-0.62 -2.06)"/><path class="cls-1" d="M52.51,11.37a5.36,5.36,0,0,1,1.25-3.66,4.34,4.34,0,0,1,3.45-1.43A4.41,4.41,0,0,1,60.68,7.7a5.32,5.32,0,0,1,1.25,3.67v.19a5.32,5.32,0,0,1-1.25,3.67,4.93,4.93,0,0,1-6.92,0,5.37,5.37,0,0,1-1.25-3.67Zm2.69.19a4.34,4.34,0,0,0,.48,2.19,1.83,1.83,0,0,0,3.07,0,4.23,4.23,0,0,0,.49-2.19v-.19a4.23,4.23,0,0,0-.49-2.17,1.66,1.66,0,0,0-1.54-.84,1.63,1.63,0,0,0-1.53.84,4.38,4.38,0,0,0-.48,2.17Z" transform="translate(-0.62 -2.06)"/><path class="cls-2" d="M70.11,16.45h-.33a1.18,1.18,0,0,1-1.18-1.18h0a1.18,1.18,0,0,1,1.18-1.18h.33a1.18,1.18,0,0,1,1.18,1.18h0A1.18,1.18,0,0,1,70.11,16.45Z" transform="translate(-0.62 -2.06)"/></svg>